<svg width="64" height="64" viewBox="0 0 64 64" fill="none" xmlns="http://www.w3.org/2000/svg">
<path d="M34.6667 18.6667H29.3334V29.3333H18.6667V34.6667H29.3334V45.3333H34.6667V34.6667H45.3334V29.3333H34.6667V18.6667ZM32 5.33333C17.28 5.33333 5.33337 17.28 5.33337 32C5.33337 46.72 17.28 58.6667 32 58.6667C46.72 58.6667 58.6667 46.72 58.6667 32C58.6667 17.28 46.72 5.33333 32 5.33333ZM32 53.3333C20.24 53.3333 10.6667 43.76 10.6667 32C10.6667 20.24 20.24 10.6667 32 10.6667C43.76 10.6667 53.3334 20.24 53.3334 32C53.3334 43.76 43.76 53.3333 32 53.3333Z" fill="#98BB4D"/>
</svg>
