<svg width="32" height="32" viewBox="0 0 32 32" fill="none" xmlns="http://www.w3.org/2000/svg">
<path d="M14.6666 12H17.3333V8H21.3333V5.33333H17.3333V1.33333H14.6666V5.33333H10.6666V8H14.6666V12ZM9.33325 24C7.86658 24 6.67992 25.2 6.67992 26.6667C6.67992 28.1333 7.86658 29.3333 9.33325 29.3333C10.7999 29.3333 11.9999 28.1333 11.9999 26.6667C11.9999 25.2 10.7999 24 9.33325 24ZM22.6666 24C21.1999 24 20.0133 25.2 20.0133 26.6667C20.0133 28.1333 21.1999 29.3333 22.6666 29.3333C24.1333 29.3333 25.3333 28.1333 25.3333 26.6667C25.3333 25.2 24.1333 24 22.6666 24ZM9.55992 19.6667L9.59992 19.5067L10.7999 17.3333H20.7333C21.7333 17.3333 22.6132 16.7867 23.0666 15.96L28.2132 6.61333L25.8933 5.33333H25.8799L24.4132 8L20.7333 14.6667H11.3733L11.1999 14.3067L8.21325 8L6.94659 5.33333L5.69325 2.66666H1.33325V5.33333H3.99992L8.79992 15.4533L6.99992 18.72C6.78658 19.0933 6.66658 19.5333 6.66658 20C6.66658 21.4667 7.86658 22.6667 9.33325 22.6667H25.3333V20H9.89325C9.71992 20 9.55992 19.8533 9.55992 19.6667Z" fill="#98BB4D"/>
</svg>
