<svg width="181" height="110" viewBox="0 0 181 110" fill="none" xmlns="http://www.w3.org/2000/svg">
<rect width="180.588" height="110" fill="#98BB4D"/>
<g clip-path="url(#clip0)">
<path d="M19.7787 39.0668V49.5139H35.7598V54.0315H19.7787V66.6244H14.301V34.5491H37.7363V39.0668H19.7787ZM63.2686 67.0762C59.9933 67.0762 57.0191 66.3609 54.3462 64.9303C51.6733 63.4997 49.5839 61.5421 48.078 59.0574C46.5721 56.535 45.8191 53.7115 45.8191 50.5868C45.8191 47.4621 46.5721 44.6574 48.078 42.1727C49.5839 39.6503 51.6733 37.6738 54.3462 36.2432C57.0191 34.8126 59.9933 34.0974 63.2686 34.0974C66.5815 34.0974 69.5556 34.8126 72.1909 36.2432C74.864 37.6738 76.9534 39.6503 78.4593 42.1727C79.9651 44.6574 80.7181 47.4621 80.7181 50.5868C80.7181 53.7115 79.9651 56.535 78.4593 59.0574C76.9534 61.5421 74.864 63.4997 72.1909 64.9303C69.5556 66.3609 66.5815 67.0762 63.2686 67.0762ZM63.2686 62.3327C65.5274 62.3327 67.5603 61.8244 69.3674 60.808C71.1744 59.7915 72.5862 58.3986 73.6028 56.6291C74.6569 54.8597 75.184 52.8456 75.184 50.5868C75.184 48.328 74.6569 46.3139 73.6028 44.5444C72.5862 42.775 71.1744 41.3821 69.3674 40.3656C67.5603 39.3491 65.5274 38.8409 63.2686 38.8409C61.0097 38.8409 58.9768 39.3491 57.1697 40.3656C55.3627 41.3821 53.9321 42.775 52.878 44.5444C51.8615 46.3139 51.3533 48.328 51.3533 50.5868C51.3533 52.8456 51.8615 54.8597 52.878 56.6291C53.9321 58.3986 55.3627 59.7915 57.1697 60.808C58.9768 61.8244 61.0097 62.3327 63.2686 62.3327ZM107.375 67.0762C104.1 67.0762 101.126 66.3609 98.4528 64.9303C95.7799 63.4997 93.6904 61.5421 92.1846 59.0574C90.6787 56.535 89.9257 53.7115 89.9257 50.5868C89.9257 47.4621 90.6787 44.6574 92.1846 42.1727C93.6904 39.6503 95.7799 37.6738 98.4528 36.2432C101.126 34.8126 104.1 34.0974 107.375 34.0974C110.688 34.0974 113.662 34.8126 116.298 36.2432C118.97 37.6738 121.06 39.6503 122.566 42.1727C124.072 44.6574 124.825 47.4621 124.825 50.5868C124.825 53.7115 124.072 56.535 122.566 59.0574C121.06 61.5421 118.97 63.4997 116.298 64.9303C113.662 66.3609 110.688 67.0762 107.375 67.0762ZM107.375 62.3327C109.634 62.3327 111.667 61.8244 113.474 60.808C115.281 59.7915 116.693 58.3986 117.709 56.6291C118.763 54.8597 119.29 52.8456 119.29 50.5868C119.29 48.328 118.763 46.3139 117.709 44.5444C116.693 42.775 115.281 41.3821 113.474 40.3656C111.667 39.3491 109.634 38.8409 107.375 38.8409C105.116 38.8409 103.083 39.3491 101.276 40.3656C99.4693 41.3821 98.0387 42.775 96.9846 44.5444C95.9681 46.3139 95.4599 48.328 95.4599 50.5868C95.4599 52.8456 95.9681 54.8597 96.9846 56.6291C98.0387 58.3986 99.4693 59.7915 101.276 60.808C103.083 61.8244 105.116 62.3327 107.375 62.3327ZM137.025 34.5491H150.973C154.55 34.5491 157.675 35.2079 160.348 36.5256C163.02 37.8432 165.072 39.7256 166.503 42.1727C167.971 44.5821 168.705 47.3868 168.705 50.5868C168.705 53.7868 167.971 56.6103 166.503 59.0574C165.072 61.4668 163.02 63.3303 160.348 64.648C157.675 65.9656 154.55 66.6244 150.973 66.6244H137.025V34.5491ZM150.747 62.0503C154.663 62.0503 157.712 61.0339 159.896 59.0009C162.079 56.9303 163.171 54.1256 163.171 50.5868C163.171 47.0103 162.079 44.2056 159.896 42.1727C157.712 40.1021 154.663 39.0668 150.747 39.0668H142.503V62.0503H150.747Z" fill="#EFEFEF"/>
</g>
<path d="M78.2352 50C81.7142 47.6471 88.2856 47.6471 91.7646 50" stroke="#EFEFEF" stroke-width="5"/>
<path d="M49 46.5C49 46.5 56.2889 30.254 62.068 18.9965C67.847 7.73887 70.2102 18.0842 69.1177 26.9185" stroke="#EFEFEF" stroke-width="5" stroke-linecap="round"/>
<path d="M121.516 46.3238C121.516 46.3238 114.051 30.254 108.272 18.9965C102.493 7.73887 100.13 18.0842 101.222 26.9185" stroke="#EFEFEF" stroke-width="5" stroke-linecap="round"/>
<g clip-path="url(#clip1)">
<path d="M14.5748 78.9117H17.2513V97.647H14.5748V78.9117ZM38.1698 82.4447V97.647H36.0287L27.2498 86.9144V97.647H24.6536V82.4447H26.7948L35.5736 93.2309V82.4447H38.1698ZM59.0789 82.4447L52.3074 97.647H49.738L42.9933 82.4447H45.7768L51.0762 94.5691L56.456 82.4447H59.0789ZM75.3034 95.4791V97.647H63.9015V82.4447H75.0087V84.5859H66.4977V88.8682H74.0722V90.9826H66.4977V95.4791H75.3034ZM94.6892 82.4447V97.647H92.5481L83.7692 86.9144V97.647H81.1734V82.4447H83.3145L92.0934 93.2309V82.4447H94.6892ZM104.598 84.5859H99.4057V82.4447H112.387V84.5859H107.195V97.647H104.598V84.5859ZM123.692 97.8612C122.14 97.8612 120.73 97.5222 119.463 96.8441C118.196 96.166 117.206 95.2382 116.492 94.0606C115.779 92.8651 115.422 91.5269 115.422 90.0459C115.422 88.5649 115.779 87.2356 116.492 86.0579C117.206 84.8625 118.196 83.9257 119.463 83.2476C120.73 82.5696 122.14 82.2306 123.692 82.2306C125.262 82.2306 126.672 82.5696 127.921 83.2476C129.187 83.9257 130.178 84.8625 130.892 86.0579C131.606 87.2356 131.962 88.5649 131.962 90.0459C131.962 91.5269 131.606 92.8651 130.892 94.0606C130.178 95.2382 129.187 96.166 127.921 96.8441C126.672 97.5222 125.262 97.8612 123.692 97.8612ZM123.692 95.6129C124.763 95.6129 125.726 95.372 126.583 94.8903C127.439 94.4085 128.108 93.7483 128.59 92.9097C129.09 92.071 129.339 91.1165 129.339 90.0459C129.339 88.9753 129.09 88.0207 128.59 87.182C128.108 86.3434 127.439 85.6832 126.583 85.2015C125.726 84.7197 124.763 84.4788 123.692 84.4788C122.622 84.4788 121.658 84.7197 120.802 85.2015C119.945 85.6832 119.267 86.3434 118.767 87.182C118.286 88.0207 118.045 88.9753 118.045 90.0459C118.045 91.1165 118.286 92.071 118.767 92.9097C119.267 93.7483 119.945 94.4085 120.802 94.8903C121.658 95.372 122.622 95.6129 123.692 95.6129ZM147.916 97.647L144.65 93.097C144.507 93.1149 144.276 93.1238 143.955 93.1238H140.341V97.647H137.745V82.4447H143.955C145.97 82.4447 147.559 82.9175 148.719 83.8632C149.878 84.8089 150.458 86.1204 150.458 87.7976C150.458 88.9575 150.164 89.9477 149.575 90.7685C149.004 91.5893 148.183 92.2049 147.113 92.6153L150.726 97.647H147.916ZM143.794 91.0094C145.114 91.0094 146.113 90.7328 146.792 90.1797C147.487 89.6266 147.835 88.8325 147.835 87.7976C147.835 86.7627 147.487 85.9687 146.792 85.4156C146.113 84.8625 145.114 84.5859 143.794 84.5859H140.341V91.0094H143.794ZM162.639 92.6956V97.647H160.043V92.6153L153.807 82.4447H156.564L161.408 90.2332L166.226 82.4447H168.902L162.639 92.6956Z" fill="#EFEFEF"/>
</g>
<defs>
<clipPath id="clip0">
<rect x="14.1176" y="33.5294" width="154.706" height="34.1176" fill="white"/>
</clipPath>
<clipPath id="clip1">
<rect x="14.1176" y="78.8235" width="155.294" height="19.4118" fill="white"/>
</clipPath>
</defs>
</svg>
