<svg width="64" height="40" viewBox="0 0 64 40" fill="none" xmlns="http://www.w3.org/2000/svg">
<path d="M29 1H58C60.7617 1 63 3.2393 63 6C63 7.6357 62.2031 9.0752 60.9883 9.9873C60.8809 10.0498 60.7813 10.1221 60.6895 10.2041C60.2695 10.5703 60 11.1025 60 11.7031V37C60 38.1045 59.1045 39 58 39H29C30.1045 39 31 38.1045 31 37V11.7031C31 11.1025 31.2695 10.5703 31.6895 10.2041C31.7813 10.1221 31.8809 10.0498 31.9883 9.9873C33.2031 9.0752 34 7.6357 34 6C34 3.2393 31.7617 1 29 1Z" fill="#F1B31C"/>
<path d="M29 1C31.7617 1 34 3.2393 34 6C34 7.6357 33.2031 9.0752 31.9883 9.9873C31.8809 10.0498 31.7813 10.1221 31.6895 10.2041C31.2695 10.5703 31 11.1025 31 11.7031V37C31 38.1045 30.1045 39 29 39H6C4.8955 39 4 38.1045 4 37V11.7031C4 11.1025 3.7305 10.5703 3.3105 10.2041C3.2188 10.1221 3.1191 10.0498 3.0117 9.9873C1.7969 9.0752 1 7.6357 1 6C1 3.2393 3.2383 1 6 1H29Z" fill="#FCEA2B"/>
<path d="M29 1C31.7617 1 34 3.2393 34 6C34 7.6357 33.2031 9.0752 31.9883 9.9873C31.8809 10.0498 31.7813 10.1221 31.6895 10.2041C31.2695 10.5703 31 11.1025 31 11.7031V37C31 38.1045 30.1045 39 29 39" stroke="black" stroke-width="2" stroke-miterlimit="10" stroke-linecap="round" stroke-linejoin="round"/>
<path d="M6 1H58C60.7617 1 63 3.2393 63 6C63 7.6357 62.2031 9.0752 60.9883 9.9873C60.8809 10.0498 60.7813 10.1221 60.6895 10.2041C60.2695 10.5703 60 11.1025 60 11.7031V37C60 38.1045 59.1045 39 58 39H6C4.8955 39 4 38.1045 4 37V11.7031C4 11.1025 3.7305 10.5703 3.3105 10.2041C3.2188 10.1221 3.1191 10.0498 3.0117 9.9873C1.7969 9.0752 1 7.6357 1 6C1 3.2393 3.2383 1 6 1Z" stroke="black" stroke-width="2" stroke-miterlimit="10" stroke-linecap="round" stroke-linejoin="round"/>
</svg>
