<svg width="36" height="57" viewBox="0 0 36 57" fill="none" xmlns="http://www.w3.org/2000/svg">
<path d="M35 45H1V56H35V45Z" fill="#D0CFCE"/>
<path d="M35 17H1V45H35V17Z" fill="white"/>
<path d="M35 0H1V16.7953H35V0Z" fill="#D0CFCE"/>
<path d="M18 39C22.4183 39 26 36.1575 26 32.6512C26 29.1449 22.4183 26.3024 18 26.3024C13.5817 26.3024 10 29.1449 10 32.6512C10 36.1575 13.5817 39 18 39Z" fill="#EA5A47"/>
<path d="M18 28.4591C19.6569 28.4591 21 27.637 21 26.623C21 25.6089 19.6569 24.7869 18 24.7869C16.3431 24.7869 15 25.6089 15 26.623C15 27.637 16.3431 28.4591 18 28.4591Z" fill="#5C9E31"/>
<path d="M35.5 0H29V17H35.5V0Z" fill="#9B9B9A"/>
<path d="M35 45H29V56H35V45Z" fill="#9B9B9A"/>
<path d="M35 17H29V45H35V17Z" fill="#D0CFCE"/>
<path d="M22.67 27.4908C23.6578 28.0109 24.49 28.7836 25.0816 29.7303C25.6733 30.677 26.0033 31.7636 26.0379 32.8794C26.0379 36.5308 22.4455 39.4754 18.0191 39.4754C13.5927 39.4754 10 36.5308 10 32.8794C10.0376 31.7917 10.3557 30.7322 10.9234 29.8036C11.4911 28.875 12.2891 28.1088 13.24 27.5794" stroke="black" stroke-width="2" stroke-linecap="round" stroke-linejoin="round"/>
<path d="M21.3868 26.46C21.2657 26.9426 20.9964 27.3752 20.6168 27.6968C19.8228 28.2836 18.8616 28.6003 17.8743 28.6003C16.8871 28.6003 15.9258 28.2836 15.1319 27.6968C14.7639 27.3653 14.497 26.9366 14.3619 26.46C14.2463 26.0586 14.2028 25.6399 14.2336 25.2233C14.7535 25.18 15.2769 25.2401 15.7736 25.4C16.0707 25.4947 16.3518 25.6337 16.6075 25.8122C16.7783 25.0838 17.1841 24.4319 17.7623 23.9571L17.8585 23.8688L17.9547 23.9571C18.5432 24.4227 18.9514 25.0786 19.1094 25.8122C19.3722 25.646 19.6517 25.5078 19.9434 25.4C20.4402 25.2407 20.9634 25.1807 21.4834 25.2233C21.5545 25.6372 21.5213 26.0622 21.3868 26.46V26.46Z" stroke="black" stroke-width="2" stroke-linejoin="round"/>
<path d="M5 1H31" stroke="black" stroke-width="2" stroke-linecap="round" stroke-linejoin="round"/>
<path d="M1 17H35" stroke="black" stroke-width="2" stroke-linecap="round" stroke-linejoin="round"/>
<path d="M1 45H35" stroke="black" stroke-width="2" stroke-linecap="round" stroke-linejoin="round"/>
<path d="M1.895 1H1V56H35V1H34.105" stroke="black" stroke-width="2" stroke-linecap="round" stroke-linejoin="round"/>
</svg>
