<svg width="53" height="37" viewBox="0 0 53 37" fill="none" xmlns="http://www.w3.org/2000/svg">
<path d="M43.3256 1C47.8206 1 51.4651 4.64448 51.4651 9.13953V34.3721C51.4651 35.2711 50.7362 36 49.8372 36H2.62791C1.7289 36 1 35.2711 1 34.3721V9.13953C1 8.24052 1.7289 7.51163 2.62791 7.51163L13.2093 5.81852L43.3256 1Z" fill="#FCEA2B"/>
<path d="M9.95343 31.1163C12.2011 31.1163 14.0232 29.2942 14.0232 27.0465C14.0232 24.7988 12.2011 22.9767 9.95343 22.9767C7.70576 22.9767 5.88367 24.7988 5.88367 27.0465C5.88367 29.2942 7.70576 31.1163 9.95343 31.1163Z" fill="#F1B31C"/>
<path d="M42.5117 19.7209C44.7593 19.7209 46.5814 17.8988 46.5814 15.6512C46.5814 13.4035 44.7593 11.5814 42.5117 11.5814C40.264 11.5814 38.4419 13.4035 38.4419 15.6512C38.4419 17.8988 40.264 19.7209 42.5117 19.7209Z" fill="#F1B31C"/>
<path d="M36.8139 30.3023C38.1625 30.3023 39.2558 29.2091 39.2558 27.8605C39.2558 26.5119 38.1625 25.4186 36.8139 25.4186C35.4653 25.4186 34.3721 26.5119 34.3721 27.8605C34.3721 29.2091 35.4653 30.3023 36.8139 30.3023Z" fill="#F1B31C"/>
<path d="M29.4884 19.7209C30.837 19.7209 31.9302 18.6277 31.9302 17.2791C31.9302 15.9305 30.837 14.8372 29.4884 14.8372C28.1398 14.8372 27.0465 15.9305 27.0465 17.2791C27.0465 18.6277 28.1398 19.7209 29.4884 19.7209Z" fill="#F1B31C"/>
<path d="M22.9768 27.0465C24.3254 27.0465 25.4186 25.9533 25.4186 24.6047C25.4186 23.2561 24.3254 22.1628 22.9768 22.1628C21.6282 22.1628 20.5349 23.2561 20.5349 24.6047C20.5349 25.9533 21.6282 27.0465 22.9768 27.0465Z" fill="#F1B31C"/>
<path d="M14.0233 17.2791C15.3719 17.2791 16.4651 16.1858 16.4651 14.8372C16.4651 13.4886 15.3719 12.3954 14.0233 12.3954C12.6747 12.3954 11.5814 13.4886 11.5814 14.8372C11.5814 16.1858 12.6747 17.2791 14.0233 17.2791Z" fill="#F1B31C"/>
<path d="M51.4651 9.13953V34.3721C51.4651 35.2711 50.7362 36 49.8372 36H2.62791C1.7289 36 1 35.2711 1 34.3721V9.13953C1 8.24052 1.7289 7.51163 2.62791 7.51163L43.3256 1" stroke="black" stroke-width="2" stroke-miterlimit="10" stroke-linecap="round" stroke-linejoin="round"/>
<path d="M43.3256 1C47.8206 1 51.4651 4.64448 51.4651 9.13953" stroke="black" stroke-width="2" stroke-miterlimit="10" stroke-linecap="round" stroke-linejoin="round"/>
<path d="M9.95343 31.1163C12.2011 31.1163 14.0232 29.2942 14.0232 27.0465C14.0232 24.7988 12.2011 22.9767 9.95343 22.9767C7.70576 22.9767 5.88367 24.7988 5.88367 27.0465C5.88367 29.2942 7.70576 31.1163 9.95343 31.1163Z" stroke="black" stroke-width="2" stroke-miterlimit="10" stroke-linecap="round" stroke-linejoin="round"/>
<path d="M42.5117 19.7209C44.7593 19.7209 46.5814 17.8988 46.5814 15.6512C46.5814 13.4035 44.7593 11.5814 42.5117 11.5814C40.264 11.5814 38.4419 13.4035 38.4419 15.6512C38.4419 17.8988 40.264 19.7209 42.5117 19.7209Z" stroke="black" stroke-width="2" stroke-miterlimit="10" stroke-linecap="round" stroke-linejoin="round"/>
<path d="M36.8139 30.3023C38.1625 30.3023 39.2558 29.2091 39.2558 27.8605C39.2558 26.5119 38.1625 25.4186 36.8139 25.4186C35.4653 25.4186 34.3721 26.5119 34.3721 27.8605C34.3721 29.2091 35.4653 30.3023 36.8139 30.3023Z" stroke="black" stroke-width="2" stroke-miterlimit="10" stroke-linecap="round" stroke-linejoin="round"/>
<path d="M29.4884 19.7209C30.837 19.7209 31.9302 18.6277 31.9302 17.2791C31.9302 15.9305 30.837 14.8372 29.4884 14.8372C28.1398 14.8372 27.0465 15.9305 27.0465 17.2791C27.0465 18.6277 28.1398 19.7209 29.4884 19.7209Z" stroke="black" stroke-width="2" stroke-miterlimit="10" stroke-linecap="round" stroke-linejoin="round"/>
<path d="M22.9768 27.0465C24.3254 27.0465 25.4186 25.9533 25.4186 24.6047C25.4186 23.2561 24.3254 22.1628 22.9768 22.1628C21.6282 22.1628 20.5349 23.2561 20.5349 24.6047C20.5349 25.9533 21.6282 27.0465 22.9768 27.0465Z" stroke="black" stroke-width="2" stroke-miterlimit="10" stroke-linecap="round" stroke-linejoin="round"/>
<path d="M14.0233 17.2791C15.3719 17.2791 16.4651 16.1858 16.4651 14.8372C16.4651 13.4886 15.3719 12.3954 14.0233 12.3954C12.6747 12.3954 11.5814 13.4886 11.5814 14.8372C11.5814 16.1858 12.6747 17.2791 14.0233 17.2791Z" stroke="black" stroke-width="2" stroke-miterlimit="10" stroke-linecap="round" stroke-linejoin="round"/>
</svg>
