<svg width="51" height="43" viewBox="0 0 51 43" fill="none" xmlns="http://www.w3.org/2000/svg">
<path d="M25.1076 6.23797C25.1076 6.23797 30.3562 5.03967 34.555 11.0314C36.3366 13.5738 37.3076 13.1574 38.1157 14C38.3387 14.2326 39.7745 16.2978 39.9389 16.4454C41.1691 17.5493 41.005 19.0612 41.1048 20.7111C41.1532 21.5101 40.9746 23.5825 40.1157 24C38.5739 24.7495 38.1736 26.569 34.555 27.8083C34.555 27.8083 28.2567 29.0066 25.1076 25.4116C25.1076 25.4116 21.9585 30.205 13.5608 26.6099C13.5608 26.6099 10.7707 25.6998 9.61145 23.3189C8.88945 21.8361 8.11565 20 9.11565 18C9.11565 18 9.45115 16.7585 10.1157 16C11.5027 14.4166 14.6139 11.5729 15.1157 11C17.2151 8.60327 20.9088 5.03967 25.1076 6.23797Z" fill="#D22F27"/>
<path d="M10.1157 18C10.1157 18 5.1157 14 2.1157 21C-0.884297 28 3.1157 28 3.1157 28C3.1157 28 7.1157 28 7.1157 26C7.1157 24 5.449 21 9.7824 19.5L10.1157 18Z" fill="#EA5A47"/>
<path d="M2.11572 29C2.11572 29 -1.88428 40 12.1157 42C12.1157 42 17.1157 42 18.1157 39C18.1157 39 11.1157 39 10.1157 36C9.11572 33 10.1157 29 7.11572 28C7.11572 28 4.11572 28 2.11572 29Z" fill="#EA5A47"/>
<path d="M40 18C40 18 45 14 48 21C51 28 47 28 47 28C47 28 43 28 43 26C43 24 44.6667 21 40.3333 19.5L40 18Z" fill="#EA5A47"/>
<path d="M48 29C48 29 52 40 38 42C38 42 33 42 32 39C32 39 39 39 40 36C41 33 40 29 43 28C43 28 46 28 48 29Z" fill="#EA5A47"/>
<path d="M39.9292 23.1966C39.2277 24.5751 37.563 25.9658 34.1157 27C34.1157 27 28.1157 28 25.1157 25C25.1157 25 22.1157 29 14.1157 26C14.1157 26 11.4577 25.2406 10.3534 23.2537" stroke="black" stroke-width="2" stroke-miterlimit="10" stroke-linecap="round" stroke-linejoin="round"/>
<path d="M12.199 14.9167C13.5204 13.5953 15.6376 11.4781 16.1157 11C18.1157 9 21.1157 6 25.1157 7C25.1157 7 30.1157 6 34.1157 11C35.813 13.1216 36.9701 14.3429 37.7399 15.0461" stroke="black" stroke-width="2" stroke-miterlimit="10" stroke-linecap="round" stroke-linejoin="round"/>
<path d="M14.1157 26C14.1157 26 12.1157 27 12.1157 29" stroke="black" stroke-width="2" stroke-miterlimit="10" stroke-linecap="round" stroke-linejoin="round"/>
<path d="M18.199 27.0833C18.199 27.0833 17.1157 28 17.1157 30" stroke="black" stroke-width="2" stroke-miterlimit="10" stroke-linecap="round" stroke-linejoin="round"/>
<path d="M33.1157 27.0833C33.1157 27.0833 34.199 28 34.199 30" stroke="black" stroke-width="2" stroke-miterlimit="10" stroke-linecap="round" stroke-linejoin="round"/>
<path d="M21.1157 5C21.668 5 22.1157 3.88071 22.1157 2.5C22.1157 1.11929 21.668 0 21.1157 0C20.5634 0 20.1157 1.11929 20.1157 2.5C20.1157 3.88071 20.5634 5 21.1157 5Z" fill="black"/>
<path d="M29.1157 5C29.668 5 30.1157 3.88071 30.1157 2.5C30.1157 1.11929 29.668 0 29.1157 0C28.5634 0 28.1157 1.11929 28.1157 2.5C28.1157 3.88071 28.5634 5 29.1157 5Z" fill="black"/>
<path d="M37.451 25.7517C37.451 25.7517 39.1694 26.973 38.7803 28.2483" stroke="black" stroke-width="2" stroke-miterlimit="10" stroke-linecap="round" stroke-linejoin="round"/>
<path d="M10.1157 18C10.1157 18 5.1157 14 2.1157 21C-0.884297 28 3.1157 28 3.1157 28C3.1157 28 7.1157 28 7.1157 26C7.1157 24 5.449 21 9.7824 19.5L10.1157 18Z" stroke="black" stroke-width="2" stroke-miterlimit="10" stroke-linecap="round" stroke-linejoin="round"/>
<path d="M2.11572 29C2.11572 29 -1.88428 40 12.1157 42C12.1157 42 17.1157 42 18.1157 39C18.1157 39 11.1157 39 10.1157 36C9.11572 33 10.1157 29 7.11572 28C7.11572 28 4.11572 28 2.11572 29Z" stroke="black" stroke-width="2" stroke-miterlimit="10" stroke-linecap="round" stroke-linejoin="round"/>
<path d="M40 18C40 18 45 14 48 21C51 28 47 28 47 28C47 28 43 28 43 26C43 24 44.6667 21 40.3333 19.5L40 18Z" stroke="black" stroke-width="2" stroke-miterlimit="10" stroke-linecap="round" stroke-linejoin="round"/>
<path d="M48 29C48 29 52 40 38 42C38 42 33 42 32 39C32 39 39 39 40 36C41 33 40 29 43 28C43 28 46 28 48 29Z" stroke="black" stroke-width="2" stroke-miterlimit="10" stroke-linecap="round" stroke-linejoin="round"/>
</svg>
