<svg width="50" height="50" viewBox="0 0 50 50" fill="none" xmlns="http://www.w3.org/2000/svg">
<path d="M49 40.7675C38.0122 51.7441 20.2202 51.7441 9.23237 40.7675C-1.74413 29.7797 -1.74413 11.9878 9.23237 1L11.8866 3.6542C2.36078 13.1687 2.36078 28.5989 11.8866 38.1134C21.4011 47.6392 36.8313 47.6392 46.3458 38.1134L49 40.7675Z" fill="#B1CC33"/>
<path d="M46.3457 38.1133C36.8312 47.6391 21.401 47.6391 11.8865 38.1133C2.36074 28.5988 2.36074 13.1686 11.8865 3.6541L46.3457 38.1133Z" fill="#EA5A47" stroke="#EA5A47" stroke-width="2" stroke-miterlimit="10" stroke-linecap="round" stroke-linejoin="round"/>
<path d="M43.2984 40.7049C33.7788 47.5422 20.4414 46.6783 11.8865 38.1133C3.26671 29.5036 2.44691 16.0501 9.42711 6.5191" fill="#EA5A47"/>
<path d="M49 40.7675C38.0122 51.7441 20.2202 51.7441 9.23237 40.7675C-1.74413 29.7797 -1.74413 11.9878 9.23237 1L11.8866 3.6542C2.36078 13.1687 2.36078 28.5989 11.8866 38.1134C21.4011 47.6392 36.8313 47.6392 46.3458 38.1134L49 40.7675Z" stroke="black" stroke-width="2" stroke-miterlimit="10" stroke-linejoin="round"/>
<path d="M11.2899 3.0575L47.4965 39.2641" stroke="black" stroke-width="2" stroke-miterlimit="10" stroke-linecap="round" stroke-linejoin="round"/>
<path d="M43.2984 40.7049C33.7788 47.5422 20.4414 46.6783 11.8865 38.1133C3.26671 29.5036 2.44691 16.0501 9.42711 6.5191" stroke="black" stroke-width="2" stroke-miterlimit="10" stroke-linecap="round" stroke-linejoin="round"/>
<path d="M26.2002 31.4904C26.859 30.8315 27.1261 30.0304 26.7966 29.701C26.4672 29.3716 25.6661 29.6387 25.0073 30.2975C24.3485 30.9563 24.0815 31.7574 24.4109 32.0868C24.7403 32.4162 25.5414 32.1492 26.2002 31.4904Z" fill="black"/>
<path d="M38.9241 37.8522C39.5829 37.1934 39.8499 36.3923 39.5205 36.0629C39.1911 35.7335 38.39 36.0005 37.7312 36.6593C37.0724 37.3181 36.8054 38.1192 37.1348 38.4487C37.4642 38.7781 38.2653 38.511 38.9241 37.8522Z" fill="black"/>
<path d="M26.2002 39.4427C26.859 38.7839 27.1261 37.9828 26.7966 37.6534C26.4672 37.324 25.6661 37.591 25.0073 38.2498C24.3485 38.9086 24.0815 39.7097 24.4109 40.0391C24.7403 40.3685 25.5414 40.1015 26.2002 39.4427Z" fill="black"/>
<path d="M20.187 25.477C20.8458 24.8182 21.1129 24.017 20.7835 23.6876C20.4541 23.3582 19.653 23.6253 18.9941 24.2841C18.3353 24.9429 18.0683 25.744 18.3977 26.0734C18.7271 26.4028 19.5282 26.1358 20.187 25.477Z" fill="black"/>
<path d="M13.8252 12.7529C14.484 12.0941 14.7511 11.293 14.4216 10.9636C14.0922 10.6342 13.2911 10.9012 12.6323 11.56C11.9735 12.2188 11.7065 13.0199 12.0359 13.3494C12.3653 13.6788 13.1664 13.4117 13.8252 12.7529Z" fill="black"/>
<path d="M12.2345 25.4768C12.8933 24.818 13.1604 24.0169 12.8309 23.6875C12.5015 23.3581 11.7004 23.6251 11.0416 24.2839C10.3828 24.9427 10.1158 25.7438 10.4452 26.0732C10.7746 26.4026 11.5757 26.1356 12.2345 25.4768Z" fill="black"/>
<path d="M16.6514 34.6693C17.3102 34.0104 17.5772 33.2093 17.2478 32.8799C16.9184 32.5505 16.1173 32.8176 15.4585 33.4764C14.7997 34.1352 14.5327 34.9363 14.8621 35.2657C15.1915 35.5951 15.9926 35.3281 16.6514 34.6693Z" fill="black"/>
</svg>
