<svg width="64" height="40" viewBox="0 0 64 40" fill="none" xmlns="http://www.w3.org/2000/svg">
<path d="M22 11H15C7.2666 11 1 17.2666 1 25C1 32.7334 7.2666 39 15 39H44C54.4951 39 63 30.4951 63 20C63 9.5049 54.4951 1 44 1C38.3066 1 33.21 3.5137 29.7305 7.4805C27.8965 9.6514 25.0645 11 22 11Z" fill="white"/>
<path d="M25 15C27.5 15 29.5029 13.5859 31.8164 11.2734C35.2695 7.8213 38.9746 5 44 5C52.2842 5 59 11.7158 59 20C59 28.2842 52.2842 35 44 35H15C9.4766 35 5 30.5225 5 25C5 19.4775 9.4766 15 15 15L15.0313 14.0244L25.0625 13.9932L25 15Z" fill="#EA5A47"/>
<path d="M44 25C46.7614 25 49 22.7614 49 20C49 17.2386 46.7614 15 44 15C41.2386 15 39 17.2386 39 20C39 22.7614 41.2386 25 44 25Z" fill="white"/>
<path d="M25 15C27.5 15 29.5029 13.5859 31.8164 11.2734C35.2695 7.8213 38.9746 5 44 5C52.2842 5 59 11.7158 59 20C59 28.2842 52.2842 35 44 35H15C9.4766 35 5 30.5225 5 25C5 19.4775 9.4766 15 15 15" stroke="black" stroke-width="2" stroke-miterlimit="10" stroke-linecap="round" stroke-linejoin="round"/>
<path d="M22 11H15C7.2666 11 1 17.2666 1 25C1 32.7334 7.2666 39 15 39H44C54.4951 39 63 30.4951 63 20C63 9.5049 54.4951 1 44 1C38.3066 1 33.21 3.5137 29.7305 7.4805C27.8965 9.6514 25.0645 11 22 11Z" stroke="black" stroke-width="2" stroke-miterlimit="10" stroke-linecap="round" stroke-linejoin="round"/>
<path d="M44 25C46.7614 25 49 22.7614 49 20C49 17.2386 46.7614 15 44 15C41.2386 15 39 17.2386 39 20C39 22.7614 41.2386 25 44 25Z" stroke="black" stroke-width="2" stroke-miterlimit="10" stroke-linecap="round" stroke-linejoin="round"/>
</svg>
