<svg width="28" height="47" viewBox="0 0 28 47" fill="none" xmlns="http://www.w3.org/2000/svg">
<path d="M24.9135 11.3784C24.9025 11.2955 24.891 11.2126 24.8791 11.1298C24.2412 6.70981 21.8183 2.87631 17.4151 1.49621C12.8127 0.0538059 7.1151 1.82261 4.5951 6.06861C2.9051 8.91561 3.0513 12.1656 2.8399 15.3442C2.7007 17.4366 2.5861 19.531 2.4593 21.6242L1.5493 36.6342C1.5185 37.1476 1.0849 45.6976 1 45.6976H27C26.35 34.97 25.7767 24.2376 25.1125 13.5248C25.0685 12.8076 25.0085 12.091 24.9135 11.3784Z" fill="white"/>
<path d="M25.1125 13.5248C25.068 12.8073 25.008 12.0909 24.9135 11.3784C24.9026 11.2955 24.8912 11.2126 24.8791 11.1298C24.2412 6.70981 21.8182 2.87621 17.4151 1.49621C15.6557 0.960947 13.7932 0.856919 11.9851 1.19291C12.4143 1.26786 12.8384 1.36915 13.2551 1.49621C17.6582 2.87621 20.0812 6.71031 20.7191 11.1298C20.7311 11.2126 20.7426 11.2955 20.7535 11.3784C20.848 12.0909 20.908 12.8073 20.9525 13.5248C21.6167 24.2376 22.1898 34.97 22.84 45.6976H27C26.3498 34.97 25.7767 24.2376 25.1125 13.5248Z" fill="#D0CFCE"/>
<path d="M24.9135 11.3784C24.9025 11.2955 24.891 11.2126 24.8791 11.1298C24.2412 6.70982 21.8183 2.87632 17.4151 1.49622C12.8127 0.0538211 7.1151 1.82262 4.5951 6.06862C2.9051 8.91562 3.0513 12.1656 2.8399 15.3442C2.7007 17.4366 2.5861 19.531 2.4593 21.6242L1.5493 36.6342C1.5185 37.1476 1.0849 45.6976 1 45.6976H27C26.35 34.97 25.7767 24.2376 25.1125 13.5248C25.0685 12.8076 25.0085 12.091 24.9135 11.3784Z" stroke="black" stroke-width="2" stroke-linecap="round" stroke-linejoin="round"/>
<path d="M14.52 6.74413C15.332 6.74413 15.9903 6.08585 15.9903 5.27383C15.9903 4.4618 15.332 3.80353 14.52 3.80353C13.708 3.80353 13.0497 4.4618 13.0497 5.27383C13.0497 6.08585 13.708 6.74413 14.52 6.74413Z" fill="black"/>
<path d="M17.64 8.82413C18.452 8.82413 19.1103 8.16585 19.1103 7.35383C19.1103 6.54181 18.452 5.88353 17.64 5.88353C16.828 5.88353 16.1697 6.54181 16.1697 7.35383C16.1697 8.16585 16.828 8.82413 17.64 8.82413Z" fill="black"/>
<path d="M11.4 8.82413C12.212 8.82413 12.8703 8.16585 12.8703 7.35383C12.8703 6.54181 12.212 5.88353 11.4 5.88353C10.588 5.88353 9.92969 6.54181 9.92969 7.35383C9.92969 8.16585 10.588 8.82413 11.4 8.82413Z" fill="black"/>
</svg>
