<svg width="46" height="52" viewBox="0 0 46 52" fill="none" xmlns="http://www.w3.org/2000/svg">
<path d="M33.6891 3.5905C34.6151 2.0325 35.6921 1 35.6921 1C35.6921 1 37.5529 2.0058 37.5276 4.6491C39.8846 2.3823 42.3927 2.0116 42.3927 2.0116C42.3927 2.0116 42.3832 4.5433 40.4797 7.2024C41.0822 7.1084 41.6169 7.1267 42.0756 7.2159C43.6103 7.4954 44.3594 8.4964 44.3594 8.4964C44.3594 8.4964 42.1049 11.6377 38.9718 12.5613C38.3269 12.7553 37.7526 12.8167 37.2459 12.7999C35.2754 12.7357 31.9823 10.1609 32.4419 6.9136C32.6155 5.687 33.1242 4.541 33.6891 3.5905Z" fill="#B1CC33" stroke="#B1CC33" stroke-width="2" stroke-miterlimit="10" stroke-linejoin="round"/>
<path d="M29.1791 9.0606C26.8343 9.9469 24.0244 12.2467 21.8411 15.344L3.84638 40.8715C-2.69092 50.1454 3.04238 54.8458 10.8546 46.6172L32.3586 23.9668C36.5865 19.5135 38.4384 13.8576 36.2549 12.0674L32.7456 9.1903C31.9096 8.5049 30.6339 8.5107 29.1791 9.0606Z" fill="#F4AA41" stroke="#F4AA41" stroke-width="2" stroke-miterlimit="10" stroke-linecap="round" stroke-linejoin="round"/>
<path d="M37.0396 13.3144C36.9096 12.8544 36.6996 12.4644 36.3796 12.1744L37.0396 13.3144Z" fill="#D22F27"/>
<path d="M37.0396 13.3144C36.9096 12.8544 36.6996 12.4644 36.3796 12.1744" stroke="#D22F27" stroke-width="2" stroke-miterlimit="10" stroke-linejoin="round"/>
<path d="M36.9996 15.9544C36.8997 16.4144 36.7597 16.8944 36.5797 17.3944C36.5297 17.5444 36.4697 17.7044 36.3996 17.8544C36.3396 18.0244 36.2697 18.1944 36.1896 18.3544C36.0996 18.5644 35.9995 18.7644 35.8996 18.9744C35.4696 19.8344 34.9396 20.7244 34.3096 21.5945C34.1896 21.7745 34.0595 21.9445 33.9195 22.1245C33.7896 22.3045 33.6396 22.4945 33.4996 22.6745C33.1396 23.1145 32.7596 23.5445 32.3596 23.9645L10.8496 46.6145C7.18955 50.4745 3.98955 51.4845 2.28955 50.5145C8.70385 50.6354 38.0434 13.138 36.3796 10.3545C36.3797 10.3544 37.7108 14.2356 36.9996 15.9544Z" fill="#E27022" stroke="#E27022" stroke-width="2" stroke-linecap="round" stroke-linejoin="round"/>
<path d="M44.3546 8.4944C44.3546 8.4944 42.1046 11.6344 38.9746 12.5644C38.3246 12.7544 37.7546 12.8144 37.2446 12.8044C36.3246 12.7644 35.1046 12.1844 34.1346 11.2444L42.3946 2.0144C42.3946 2.0144 42.3846 4.5444 40.4746 7.2044C41.0846 7.1044 41.6146 7.1244 42.0746 7.2144C43.6146 7.4944 44.3546 8.4944 44.3546 8.4944Z" fill="#5C9E31"/>
<path d="M27.5624 9.8521C25.6189 11.0062 23.5402 12.9336 21.8411 15.344L3.84638 40.8715C-2.69092 50.1454 3.04238 54.8458 10.8546 46.6172L32.3586 23.9668C34.3527 21.8664 35.8182 19.4986 36.5811 17.3949" stroke="black" stroke-width="2" stroke-miterlimit="10" stroke-linecap="round" stroke-linejoin="round"/>
<path d="M33.6891 3.5905C34.6151 2.0325 35.6921 1 35.6921 1C35.6921 1 37.5529 2.0058 37.5276 4.6491C39.8846 2.3823 42.3927 2.0116 42.3927 2.0116C42.3927 2.0116 42.3832 4.5433 40.4797 7.2024C41.0822 7.1084 41.6169 7.1267 42.0756 7.2159C43.6103 7.4954 44.3594 8.4964 44.3594 8.4964C44.3594 8.4964 42.1049 11.6377 38.9718 12.5613C38.3269 12.7553 37.7526 12.8167 37.2459 12.7999C35.2754 12.7357 31.9823 10.1609 32.4419 6.9136C32.6155 5.687 33.1242 4.541 33.6891 3.5905Z" stroke="black" stroke-width="2" stroke-miterlimit="10" stroke-linejoin="round"/>
</svg>
